<mxfile host="app.diagrams.net" modified="2021-04-23T07:05:56.839Z" agent="5.0 (Windows NT 10.0; WOW64) AppleWebKit/537.36 (KHTML, like Gecko) Chrome/86.0.4240.198 Safari/537.36" etag="GOTim8swXY35ojjnugbF" version="14.6.5" type="github">
  <diagram id="qqG9j6FwNmFoKki0PLFL" name="Page-1">
    <mxGraphModel dx="1376" dy="725" grid="1" gridSize="10" guides="1" tooltips="1" connect="1" arrows="1" fold="1" page="1" pageScale="1" pageWidth="827" pageHeight="1169" math="0" shadow="0">
      <root>
        <mxCell id="0" />
        <mxCell id="1" parent="0" />
        <mxCell id="udIg1oCXgyVEJlO1_kRL-4" value="" style="edgeStyle=orthogonalEdgeStyle;rounded=0;orthogonalLoop=1;jettySize=auto;html=1;" edge="1" parent="1" source="udIg1oCXgyVEJlO1_kRL-1" target="udIg1oCXgyVEJlO1_kRL-3">
          <mxGeometry relative="1" as="geometry" />
        </mxCell>
        <mxCell id="udIg1oCXgyVEJlO1_kRL-1" value="CX = 9&lt;br&gt;AL = 0&lt;br&gt;[BX]-&amp;gt;AH" style="rounded=1;whiteSpace=wrap;html=1;" vertex="1" parent="1">
          <mxGeometry x="200" y="50" width="120" height="60" as="geometry" />
        </mxCell>
        <mxCell id="udIg1oCXgyVEJlO1_kRL-2" value="[BX]-&amp;gt;AH" style="rounded=1;whiteSpace=wrap;html=1;" vertex="1" parent="1">
          <mxGeometry x="414" y="170" width="120" height="60" as="geometry" />
        </mxCell>
        <mxCell id="udIg1oCXgyVEJlO1_kRL-5" value="" style="edgeStyle=orthogonalEdgeStyle;rounded=0;orthogonalLoop=1;jettySize=auto;html=1;" edge="1" parent="1" source="udIg1oCXgyVEJlO1_kRL-3" target="udIg1oCXgyVEJlO1_kRL-2">
          <mxGeometry relative="1" as="geometry" />
        </mxCell>
        <mxCell id="udIg1oCXgyVEJlO1_kRL-6" value="NO" style="edgeLabel;html=1;align=center;verticalAlign=middle;resizable=0;points=[];" vertex="1" connectable="0" parent="udIg1oCXgyVEJlO1_kRL-5">
          <mxGeometry x="-0.336" y="-3" relative="1" as="geometry">
            <mxPoint x="9" y="-3" as="offset" />
          </mxGeometry>
        </mxCell>
        <mxCell id="udIg1oCXgyVEJlO1_kRL-8" value="" style="edgeStyle=orthogonalEdgeStyle;rounded=0;orthogonalLoop=1;jettySize=auto;html=1;" edge="1" parent="1" source="udIg1oCXgyVEJlO1_kRL-3" target="udIg1oCXgyVEJlO1_kRL-7">
          <mxGeometry relative="1" as="geometry" />
        </mxCell>
        <mxCell id="udIg1oCXgyVEJlO1_kRL-9" value="YES" style="edgeLabel;html=1;align=center;verticalAlign=middle;resizable=0;points=[];" vertex="1" connectable="0" parent="udIg1oCXgyVEJlO1_kRL-8">
          <mxGeometry x="-0.2727" y="2" relative="1" as="geometry">
            <mxPoint x="-2" y="2" as="offset" />
          </mxGeometry>
        </mxCell>
        <mxCell id="udIg1oCXgyVEJlO1_kRL-3" value="[BX]&amp;gt;AH" style="rhombus;whiteSpace=wrap;html=1;" vertex="1" parent="1">
          <mxGeometry x="200" y="160" width="120" height="80" as="geometry" />
        </mxCell>
        <mxCell id="udIg1oCXgyVEJlO1_kRL-11" value="" style="edgeStyle=orthogonalEdgeStyle;rounded=0;orthogonalLoop=1;jettySize=auto;html=1;entryX=0.5;entryY=0;entryDx=0;entryDy=0;" edge="1" parent="1" source="udIg1oCXgyVEJlO1_kRL-7" target="udIg1oCXgyVEJlO1_kRL-15">
          <mxGeometry relative="1" as="geometry">
            <mxPoint x="260" y="420" as="targetPoint" />
          </mxGeometry>
        </mxCell>
        <mxCell id="udIg1oCXgyVEJlO1_kRL-12" value="YES" style="edgeLabel;html=1;align=center;verticalAlign=middle;resizable=0;points=[];" vertex="1" connectable="0" parent="udIg1oCXgyVEJlO1_kRL-11">
          <mxGeometry x="-0.25" y="2" relative="1" as="geometry">
            <mxPoint x="-2" y="1" as="offset" />
          </mxGeometry>
        </mxCell>
        <mxCell id="udIg1oCXgyVEJlO1_kRL-7" value="[BX]&amp;gt;0" style="rhombus;whiteSpace=wrap;html=1;" vertex="1" parent="1">
          <mxGeometry x="200" y="290" width="120" height="80" as="geometry" />
        </mxCell>
        <mxCell id="udIg1oCXgyVEJlO1_kRL-19" style="edgeStyle=orthogonalEdgeStyle;rounded=0;orthogonalLoop=1;jettySize=auto;html=1;entryX=0;entryY=0.5;entryDx=0;entryDy=0;" edge="1" parent="1" source="udIg1oCXgyVEJlO1_kRL-14" target="udIg1oCXgyVEJlO1_kRL-1">
          <mxGeometry relative="1" as="geometry">
            <Array as="points">
              <mxPoint x="120" y="570" />
              <mxPoint x="120" y="80" />
            </Array>
          </mxGeometry>
        </mxCell>
        <mxCell id="udIg1oCXgyVEJlO1_kRL-20" value="YES" style="edgeLabel;html=1;align=center;verticalAlign=middle;resizable=0;points=[];" vertex="1" connectable="0" parent="udIg1oCXgyVEJlO1_kRL-19">
          <mxGeometry x="-0.8092" y="-1" relative="1" as="geometry">
            <mxPoint x="22" y="1" as="offset" />
          </mxGeometry>
        </mxCell>
        <mxCell id="udIg1oCXgyVEJlO1_kRL-14" value="CX--&lt;br&gt;CX&amp;gt;0" style="rhombus;whiteSpace=wrap;html=1;" vertex="1" parent="1">
          <mxGeometry x="200" y="530" width="120" height="80" as="geometry" />
        </mxCell>
        <mxCell id="udIg1oCXgyVEJlO1_kRL-16" value="" style="edgeStyle=orthogonalEdgeStyle;rounded=0;orthogonalLoop=1;jettySize=auto;html=1;" edge="1" parent="1" source="udIg1oCXgyVEJlO1_kRL-15" target="udIg1oCXgyVEJlO1_kRL-14">
          <mxGeometry relative="1" as="geometry" />
        </mxCell>
        <mxCell id="udIg1oCXgyVEJlO1_kRL-15" value="BX++" style="rounded=1;whiteSpace=wrap;html=1;" vertex="1" parent="1">
          <mxGeometry x="200" y="420" width="120" height="60" as="geometry" />
        </mxCell>
        <mxCell id="udIg1oCXgyVEJlO1_kRL-21" value="AL++" style="rounded=1;whiteSpace=wrap;html=1;" vertex="1" parent="1">
          <mxGeometry x="414" y="300" width="120" height="60" as="geometry" />
        </mxCell>
        <mxCell id="udIg1oCXgyVEJlO1_kRL-22" value="" style="edgeStyle=orthogonalEdgeStyle;rounded=0;orthogonalLoop=1;jettySize=auto;html=1;" edge="1" parent="1" target="udIg1oCXgyVEJlO1_kRL-21">
          <mxGeometry relative="1" as="geometry">
            <mxPoint x="320" y="330" as="sourcePoint" />
          </mxGeometry>
        </mxCell>
        <mxCell id="udIg1oCXgyVEJlO1_kRL-23" value="NO" style="edgeLabel;html=1;align=center;verticalAlign=middle;resizable=0;points=[];" vertex="1" connectable="0" parent="udIg1oCXgyVEJlO1_kRL-22">
          <mxGeometry x="-0.336" y="-3" relative="1" as="geometry">
            <mxPoint x="9" y="-3" as="offset" />
          </mxGeometry>
        </mxCell>
        <mxCell id="udIg1oCXgyVEJlO1_kRL-25" value="" style="edgeStyle=orthogonalEdgeStyle;rounded=0;orthogonalLoop=1;jettySize=auto;html=1;" edge="1" parent="1">
          <mxGeometry relative="1" as="geometry">
            <mxPoint x="320" y="570" as="sourcePoint" />
            <mxPoint x="414" y="570" as="targetPoint" />
          </mxGeometry>
        </mxCell>
        <mxCell id="udIg1oCXgyVEJlO1_kRL-26" value="NO" style="edgeLabel;html=1;align=center;verticalAlign=middle;resizable=0;points=[];" vertex="1" connectable="0" parent="udIg1oCXgyVEJlO1_kRL-25">
          <mxGeometry x="-0.336" y="-3" relative="1" as="geometry">
            <mxPoint x="9" y="-3" as="offset" />
          </mxGeometry>
        </mxCell>
        <mxCell id="udIg1oCXgyVEJlO1_kRL-27" value="END" style="ellipse;whiteSpace=wrap;html=1;" vertex="1" parent="1">
          <mxGeometry x="414" y="530" width="120" height="80" as="geometry" />
        </mxCell>
        <mxCell id="udIg1oCXgyVEJlO1_kRL-29" value="" style="edgeStyle=orthogonalEdgeStyle;rounded=0;orthogonalLoop=1;jettySize=auto;html=1;" edge="1" parent="1" source="udIg1oCXgyVEJlO1_kRL-28" target="udIg1oCXgyVEJlO1_kRL-1">
          <mxGeometry relative="1" as="geometry" />
        </mxCell>
        <mxCell id="udIg1oCXgyVEJlO1_kRL-28" value="BEGIN" style="ellipse;whiteSpace=wrap;html=1;" vertex="1" parent="1">
          <mxGeometry x="414" y="40" width="120" height="80" as="geometry" />
        </mxCell>
      </root>
    </mxGraphModel>
  </diagram>
</mxfile>
